<svg width="306" height="311" viewBox="0 0 306 311" fill="none" xmlns="http://www.w3.org/2000/svg">
<g clip-path="url(#clip0_1_3)">
<path d="M71.5357 86.0803V85.9016L71.4224 85.7633C66.0193 79.1737 62.2464 70.397 62.2464 61.0893V34.4321C62.2464 19.7059 74.598 7.16426 89.0679 7.16426H216.932C231.402 7.16426 243.754 19.7059 243.754 34.4321V61.0893C243.754 70.397 239.981 79.1737 234.578 85.7633L234.464 85.9016V86.0803V173.271C234.464 175.904 233.432 178.003 231.876 179.585C230.319 181.167 228.258 182.212 225.675 182.212H207.643C205.591 182.212 202.987 181.155 201.442 179.585C199.886 178.003 198.854 175.904 198.854 173.271V127.177V126.677H198.354H162.289H161.789V127.177V173.271C161.789 175.904 160.757 178.003 159.201 179.585C157.656 181.155 155.052 182.212 153 182.212H80.325C77.7421 182.212 75.6808 181.167 74.1243 179.585C72.5678 178.003 71.5357 175.904 71.5357 173.271V86.0803ZM208.736 81.5821H208.751L208.766 81.5812C218.364 81.0074 226.175 71.8584 226.175 61.0893V34.4321C226.175 29.1654 222.134 25.0464 216.932 25.0464H189.611H189.111V25.5464V62.2C189.111 73.0104 197.514 81.5821 207.643 81.5821H208.736ZM134.968 25.0464H134.468V25.5464V62.2C134.468 73.0104 142.871 81.5821 153 81.5821C163.129 81.5821 171.532 73.0104 171.532 62.2V25.5464V25.0464H171.032H134.968ZM116.889 25.5464V25.0464H116.389H89.0679C83.8662 25.0464 79.825 29.1654 79.825 34.4321V61.0893C79.825 71.8584 87.6364 81.0074 97.2344 81.5812L97.2493 81.5821H97.2643H98.3571C108.486 81.5821 116.889 73.0104 116.889 62.2V25.5464ZM134.968 136.562H135.468V136.062V108.295V107.795H134.968H98.3571H97.8571V108.295V136.062V136.562H98.3571H134.968Z" fill="url(#paint0_linear_1_3)" stroke="black"/>
<path d="M44.4688 243.375C44.4688 242.75 44.6771 242.062 45.0938 241.312C45.5104 240.521 45.9896 239.792 46.5312 239.125C47.1146 238.417 47.6562 237.792 48.1562 237.25C48.6979 236.708 49.0938 236.333 49.3438 236.125L63.0938 210.938C63.5104 210.604 63.8854 210.188 64.2188 209.688C64.5521 209.146 64.8854 208.646 65.2188 208.188C65.5938 207.688 65.9896 207.271 66.4062 206.938C66.8646 206.604 67.4062 206.438 68.0312 206.438C68.0312 207.104 67.9479 207.917 67.7812 208.875C67.6562 209.792 67.4479 210.479 67.1562 210.938L55.3438 232C56.5938 231.5 57.7396 231.354 58.7812 231.562C59.8646 231.729 60.8646 232.083 61.7812 232.625C62.6979 233.167 63.5521 233.833 64.3438 234.625C65.1771 235.375 65.9479 236.104 66.6562 236.812C67.4062 237.521 68.1146 238.125 68.7812 238.625C69.4479 239.125 70.1146 239.375 70.7812 239.375C72.2396 239.375 73.6562 238.646 75.0312 237.188C76.4062 235.729 77.7188 233.854 78.9688 231.562C80.2188 229.271 81.3646 226.729 82.4062 223.938C83.4479 221.146 84.3438 218.438 85.0938 215.812C85.8438 213.146 86.4271 210.729 86.8438 208.562C87.2604 206.354 87.4688 204.708 87.4688 203.625C87.4688 203.042 87.4062 202.417 87.2812 201.75C87.1979 201.042 87.0104 200.417 86.7188 199.875C86.4271 199.292 86.0312 198.812 85.5312 198.438C85.0729 198.062 84.4688 197.875 83.7188 197.875C82.5938 197.875 81.5729 198.354 80.6562 199.312C79.7396 200.271 78.9062 201.5 78.1562 203C77.4062 204.5 76.7396 206.188 76.1562 208.062C75.6146 209.896 75.1354 211.688 74.7188 213.438C74.3438 215.188 74.0521 216.792 73.8438 218.25C73.6771 219.708 73.5938 220.812 73.5938 221.562C73.5938 222.396 73.6771 223.188 73.8438 223.938C74.0521 224.688 74.2812 225.417 74.5312 226.125C74.7812 226.833 74.9896 227.562 75.1562 228.312C75.3646 229.021 75.4688 229.771 75.4688 230.562C74.3021 230.562 73.3646 230.271 72.6562 229.688C71.9896 229.104 71.4896 228.375 71.1562 227.5C70.8229 226.625 70.5938 225.688 70.4688 224.688C70.3854 223.646 70.3438 222.688 70.3438 221.812C70.3438 220.812 70.4688 219.417 70.7188 217.625C71.0104 215.833 71.4062 213.917 71.9062 211.875C72.4479 209.792 73.0938 207.688 73.8438 205.562C74.6354 203.438 75.5312 201.521 76.5312 199.812C77.5729 198.062 78.7188 196.646 79.9688 195.562C81.2604 194.438 82.6562 193.875 84.1562 193.875C84.2812 193.875 84.5521 193.896 84.9688 193.938C85.4271 193.979 85.7188 194 85.8438 194C86.5104 194.833 87.0938 195.625 87.5938 196.375C88.0938 197.125 88.5104 197.875 88.8438 198.625C89.2188 199.375 89.4896 200.167 89.6562 201C89.8229 201.833 89.9062 202.771 89.9062 203.812C89.9062 205.104 89.6979 206.979 89.2812 209.438C88.9062 211.896 88.3438 214.604 87.5938 217.562C86.8438 220.479 85.9271 223.479 84.8438 226.562C83.7604 229.604 82.5104 232.375 81.0938 234.875C79.6771 237.375 78.1146 239.438 76.4062 241.062C74.6979 242.646 72.8646 243.438 70.9062 243.438C69.5729 243.438 68.4271 243.229 67.4688 242.812C66.5521 242.396 65.7396 241.896 65.0312 241.312C64.3229 240.688 63.6771 240.021 63.0938 239.312C62.5104 238.562 61.9062 237.896 61.2812 237.312C60.6562 236.688 59.9688 236.167 59.2188 235.75C58.4688 235.333 57.5521 235.125 56.4688 235.125C55.3438 235.125 54.3646 235.479 53.5312 236.188C52.6979 236.896 51.9688 237.771 51.3438 238.812C50.7188 239.854 50.1771 240.938 49.7188 242.062C49.2604 243.188 48.8646 244.167 48.5312 245C48.4479 245 48.3021 245 48.0938 245C47.9271 245.042 47.8021 245.062 47.7188 245.062C47.5104 245.062 47.2188 245.021 46.8438 244.938C46.5104 244.854 46.1562 244.75 45.7812 244.625C45.4479 244.458 45.1354 244.271 44.8438 244.062C44.5938 243.854 44.4688 243.625 44.4688 243.375ZM91.4062 240.938C91.4062 240.354 91.4688 239.854 91.5938 239.438C91.7188 238.979 91.9479 238.396 92.2812 237.688C92.5729 237.271 93.0938 236.479 93.8438 235.312C94.6354 234.146 95.4479 232.917 96.2812 231.625C97.1562 230.333 97.9688 229.125 98.7188 228C99.5104 226.833 100.052 226.021 100.344 225.562C100.719 225.021 101.01 224.729 101.219 224.688C101.427 224.646 101.823 224.625 102.406 224.625C102.781 224.625 103.177 224.646 103.594 224.688C104.052 224.729 104.344 225.021 104.469 225.562C103.885 226.979 103.094 228.333 102.094 229.625C101.135 230.875 100.177 232.125 99.2188 233.375C98.3021 234.625 97.4896 235.917 96.7812 237.25C96.0729 238.542 95.7188 239.938 95.7188 241.438C95.8854 241.438 96.1354 241.458 96.4688 241.5C96.8438 241.542 97.2396 241.583 97.6562 241.625C98.0729 241.667 98.4479 241.708 98.7812 241.75C99.1562 241.792 99.4271 241.792 99.5938 241.75C99.8438 241.708 100.26 241.625 100.844 241.5C101.469 241.333 102.115 241.167 102.781 241C103.49 240.833 104.156 240.667 104.781 240.5C105.406 240.333 105.844 240.208 106.094 240.125C106.094 240.208 106.094 240.354 106.094 240.562C106.135 240.729 106.156 240.854 106.156 240.938C106.156 241.771 105.76 242.458 104.969 243C104.219 243.542 103.323 243.979 102.281 244.312C101.281 244.604 100.24 244.812 99.1562 244.938C98.1146 245.021 97.3021 245.062 96.7188 245.062C96.0938 245.062 95.4479 245 94.7812 244.875C94.1562 244.708 93.5938 244.458 93.0938 244.125C92.5938 243.792 92.1771 243.375 91.8438 242.875C91.5521 242.333 91.4062 241.688 91.4062 240.938ZM109.594 204.312C110.135 204.312 110.635 204.333 111.094 204.375C111.552 204.417 111.948 204.521 112.281 204.688C112.615 204.854 112.885 205.104 113.094 205.438C113.302 205.771 113.406 206.229 113.406 206.812C113.406 207.062 113.406 207.333 113.406 207.625C113.406 207.917 113.365 208.208 113.281 208.5C113.24 208.75 113.135 208.979 112.969 209.188C112.802 209.354 112.531 209.438 112.156 209.438C111.573 209.438 111.094 209.229 110.719 208.812C110.385 208.396 110.135 207.917 109.969 207.375C109.802 206.792 109.698 206.208 109.656 205.625C109.615 205.042 109.594 204.604 109.594 204.312ZM107.469 242.188C107.469 241.812 107.469 241.521 107.469 241.312C107.469 241.104 107.49 240.917 107.531 240.75C107.615 240.542 107.719 240.333 107.844 240.125C107.969 239.917 108.135 239.646 108.344 239.312C108.677 238.729 109.302 237.708 110.219 236.25C111.135 234.792 112.115 233.25 113.156 231.625C114.198 230 115.177 228.458 116.094 227C117.052 225.542 117.719 224.521 118.094 223.938C118.135 223.896 118.24 223.875 118.406 223.875C118.615 223.875 118.76 223.875 118.844 223.875C118.927 223.875 119.073 223.875 119.281 223.875C119.49 223.875 119.615 223.896 119.656 223.938C119.698 223.979 119.781 224.083 119.906 224.25C120.073 224.417 120.24 224.604 120.406 224.812C120.615 224.979 120.781 225.146 120.906 225.312C121.073 225.479 121.198 225.562 121.281 225.562C121.656 225.562 122.052 225.438 122.469 225.188C122.885 224.938 123.302 224.667 123.719 224.375C124.177 224.042 124.635 223.75 125.094 223.5C125.552 223.25 126.031 223.125 126.531 223.125C127.073 223.125 127.573 223.25 128.031 223.5C128.49 223.75 128.885 224.062 129.219 224.438C129.552 224.812 129.802 225.229 129.969 225.688C130.177 226.146 130.281 226.604 130.281 227.062C130.281 228.021 130.135 228.938 129.844 229.812C129.594 230.688 129.302 231.562 128.969 232.438C128.635 233.271 128.323 234.125 128.031 235C127.781 235.833 127.656 236.708 127.656 237.625C127.656 238.542 127.76 239.208 127.969 239.625C128.177 240 128.76 240.188 129.719 240.188C130.844 240.188 131.906 240.021 132.906 239.688C133.948 239.354 135.01 239.188 136.094 239.188C136.094 240.188 135.781 241.021 135.156 241.688C134.573 242.354 133.823 242.896 132.906 243.312C132.031 243.688 131.073 243.958 130.031 244.125C129.031 244.25 128.115 244.312 127.281 244.312C125.698 244.312 124.531 243.875 123.781 243C123.073 242.083 122.719 240.875 122.719 239.375C122.719 238.375 122.885 237.438 123.219 236.562C123.594 235.688 123.99 234.833 124.406 234C124.865 233.167 125.281 232.333 125.656 231.5C126.031 230.667 126.219 229.771 126.219 228.812C126.219 228.562 126.177 228.229 126.094 227.812C126.01 227.396 125.74 227.188 125.281 227.188C123.906 227.188 122.656 227.625 121.531 228.5C120.448 229.375 119.448 230.479 118.531 231.812C117.656 233.146 116.844 234.583 116.094 236.125C115.385 237.667 114.698 239.104 114.031 240.438C113.406 241.771 112.802 242.875 112.219 243.75C111.635 244.625 111.031 245.062 110.406 245.062C109.531 245.062 108.823 244.792 108.281 244.25C107.74 243.708 107.469 243.021 107.469 242.188ZM134.719 241.75C134.01 240.167 133.698 238.625 133.781 237.125C133.865 235.583 134.198 234.146 134.781 232.812C135.406 231.438 136.198 230.208 137.156 229.125C138.156 228 139.219 227.042 140.344 226.25C141.469 225.417 142.594 224.792 143.719 224.375C144.885 223.958 145.906 223.792 146.781 223.875C147.656 223.917 148.344 224.229 148.844 224.812C149.344 225.396 149.51 226.292 149.344 227.5C149.344 229.125 148.823 230.542 147.781 231.75C146.781 232.958 145.656 234.042 144.406 235C143.198 235.958 142.073 236.833 141.031 237.625C140.031 238.375 139.531 239.083 139.531 239.75C139.531 240.125 139.74 240.417 140.156 240.625C140.615 240.833 141.135 241 141.719 241.125C142.302 241.208 142.885 241.271 143.469 241.312C144.052 241.354 144.469 241.396 144.719 241.438C148.635 240.604 151.573 240.104 153.531 239.938C155.49 239.729 156.719 239.75 157.219 240C157.719 240.208 157.615 240.562 156.906 241.062C156.24 241.521 155.198 242.021 153.781 242.562C152.365 243.062 150.719 243.521 148.844 243.938C146.969 244.354 145.115 244.604 143.281 244.688C141.448 244.729 139.74 244.542 138.156 244.125C136.615 243.708 135.469 242.917 134.719 241.75ZM145.656 227.5C144.823 227.5 144.031 227.729 143.281 228.188C142.531 228.646 141.844 229.229 141.219 229.938C140.635 230.604 140.135 231.354 139.719 232.188C139.302 232.979 138.99 233.729 138.781 234.438C138.865 234.479 138.927 234.5 138.969 234.5H139.156C139.74 234.5 140.406 234.25 141.156 233.75C141.906 233.25 142.615 232.646 143.281 231.938C143.948 231.188 144.51 230.417 144.969 229.625C145.427 228.833 145.656 228.125 145.656 227.5ZM155.469 231.188C155.469 230.521 155.51 229.792 155.594 229C155.677 228.167 155.865 227.417 156.156 226.75C156.448 226.083 156.865 225.521 157.406 225.062C157.99 224.604 158.76 224.375 159.719 224.375C159.719 224.917 159.656 225.417 159.531 225.875C159.448 226.333 159.323 226.792 159.156 227.25C159.031 227.708 158.906 228.208 158.781 228.75C158.698 229.25 158.656 229.812 158.656 230.438C158.656 232.021 158.865 233.5 159.281 234.875C159.698 236.25 160.323 237.458 161.156 238.5C162.031 239.5 163.094 240.292 164.344 240.875C165.635 241.458 167.156 241.75 168.906 241.75C169.656 241.75 170.573 241.583 171.656 241.25C172.74 240.917 173.823 240.521 174.906 240.062C175.99 239.604 176.99 239.146 177.906 238.688C178.823 238.229 179.469 237.896 179.844 237.688C180.76 237.188 181.49 236.5 182.031 235.625C182.573 234.708 182.99 233.729 183.281 232.688C183.573 231.604 183.76 230.521 183.844 229.438C183.927 228.312 183.969 227.312 183.969 226.438C183.969 225.021 183.823 223.646 183.531 222.312C183.281 220.938 182.99 219.583 182.656 218.25C182.365 216.917 182.073 215.583 181.781 214.25C181.531 212.917 181.406 211.562 181.406 210.188C181.865 208.896 182.573 207.729 183.531 206.688C184.531 205.604 185.656 204.688 186.906 203.938C188.198 203.146 189.573 202.521 191.031 202.062C192.49 201.604 193.906 201.333 195.281 201.25C196.406 201.542 197.26 201.917 197.844 202.375C198.427 202.792 198.823 203.25 199.031 203.75C199.281 204.25 199.344 204.729 199.219 205.188C199.094 205.646 198.885 206.062 198.594 206.438C198.135 205.438 197.531 204.771 196.781 204.438C196.073 204.104 195.26 204 194.344 204.125C193.469 204.25 192.573 204.562 191.656 205.062C190.74 205.562 189.865 206.125 189.031 206.75C188.198 207.375 187.469 208.042 186.844 208.75C186.219 209.417 185.76 210 185.469 210.5C185.469 211.75 185.594 212.979 185.844 214.188C186.135 215.354 186.427 216.542 186.719 217.75C187.052 218.917 187.344 220.104 187.594 221.312C187.885 222.479 188.031 223.688 188.031 224.938C188.031 227.938 187.552 230.688 186.594 233.188C185.677 235.646 184.323 237.771 182.531 239.562C180.781 241.312 178.635 242.667 176.094 243.625C173.594 244.583 170.781 245.062 167.656 245.062C165.698 245.062 163.948 244.667 162.406 243.875C160.906 243.083 159.635 242.042 158.594 240.75C157.594 239.417 156.823 237.917 156.281 236.25C155.74 234.583 155.469 232.896 155.469 231.188ZM188.594 263.875C189.927 261.708 191.469 259.771 193.219 258.062C194.969 256.396 196.76 254.812 198.594 253.312C200.469 251.812 202.323 250.354 204.156 248.938C205.99 247.521 207.677 246 209.219 244.375C210.802 242.75 212.156 240.958 213.281 239C214.406 237 215.177 234.688 215.594 232.062C215.594 231.979 215.573 231.854 215.531 231.688C215.531 231.479 215.531 231.333 215.531 231.25C214.573 232.375 213.406 233.646 212.031 235.062C210.698 236.479 209.24 237.812 207.656 239.062C206.115 240.312 204.49 241.354 202.781 242.188C201.073 243.021 199.406 243.438 197.781 243.438C197.365 243.438 196.823 243.417 196.156 243.375C195.531 243.292 194.906 243.146 194.281 242.938C193.656 242.729 193.115 242.438 192.656 242.062C192.198 241.688 191.969 241.188 191.969 240.562C191.969 240.021 192.115 239.188 192.406 238.062C192.698 236.938 193.094 235.688 193.594 234.312C194.094 232.938 194.656 231.542 195.281 230.125C195.906 228.708 196.573 227.417 197.281 226.25C197.99 225.083 198.677 224.125 199.344 223.375C200.052 222.625 200.698 222.25 201.281 222.25C201.865 222.25 202.365 222.375 202.781 222.625C203.198 222.875 203.406 223.292 203.406 223.875C203.406 224.917 203.031 225.958 202.281 227C201.531 228.042 200.719 229.167 199.844 230.375C198.969 231.542 198.156 232.812 197.406 234.188C196.656 235.562 196.281 237.125 196.281 238.875C199.031 238.875 201.51 238.312 203.719 237.188C205.927 236.021 207.927 234.583 209.719 232.875C211.51 231.167 213.094 229.312 214.469 227.312C215.844 225.312 217.052 223.458 218.094 221.75C219.177 220.042 220.094 218.625 220.844 217.5C221.635 216.333 222.302 215.75 222.844 215.75C223.635 215.75 224.094 216 224.219 216.5C224.385 216.958 224.469 217.542 224.469 218.25C224.094 219.542 223.573 221.062 222.906 222.812C222.24 224.521 221.552 226.333 220.844 228.25C220.177 230.125 219.552 232 218.969 233.875C218.427 235.75 218.073 237.458 217.906 239C217.906 239.042 217.906 239.104 217.906 239.188C217.948 239.271 217.969 239.333 217.969 239.375C218.719 239.125 219.427 238.688 220.094 238.062C220.76 237.438 221.406 236.812 222.031 236.188C222.698 235.521 223.365 234.938 224.031 234.438C224.698 233.896 225.385 233.625 226.094 233.625C226.135 233.625 226.281 233.917 226.531 234.5C226.823 235.083 226.823 235.792 226.531 236.625C226.156 236.917 225.469 237.417 224.469 238.125C223.51 238.833 222.49 239.583 221.406 240.375C220.323 241.125 219.302 241.875 218.344 242.625C217.385 243.333 216.719 243.875 216.344 244.25C215.76 244.833 215.156 245.667 214.531 246.75C213.906 247.833 213.281 249.042 212.656 250.375C212.031 251.75 211.406 253.188 210.781 254.688C210.198 256.188 209.615 257.646 209.031 259.062C208.448 260.521 207.865 261.854 207.281 263.062C206.74 264.312 206.24 265.333 205.781 266.125C205.573 266.458 205.135 267.104 204.469 268.062C203.844 269.062 203.135 270.125 202.344 271.25C201.594 272.375 200.844 273.438 200.094 274.438C199.385 275.479 198.844 276.208 198.469 276.625C198.302 276.833 197.844 277.312 197.094 278.062C196.344 278.854 195.49 279.708 194.531 280.625C193.615 281.583 192.698 282.521 191.781 283.438C190.823 284.354 190.094 285.042 189.594 285.5C189.094 285.792 188.427 286.146 187.594 286.562C186.76 287.021 185.906 287.396 185.031 287.688C184.115 287.979 183.24 288.167 182.406 288.25C181.531 288.333 180.823 288.146 180.281 287.688C179.74 287.271 179.427 286.542 179.344 285.5C179.219 284.5 179.448 283.062 180.031 281.188C180.573 279.354 181.531 277.021 182.906 274.188C184.281 271.354 186.177 267.917 188.594 263.875ZM208.219 250.438C208.135 250.438 207.99 250.458 207.781 250.5C207.615 250.583 207.49 250.646 207.406 250.688C207.323 250.771 207.135 250.917 206.844 251.125C206.552 251.333 206.219 251.562 205.844 251.812C205.51 252.062 205.177 252.312 204.844 252.562C204.552 252.812 204.344 253 204.219 253.125C203.052 253.958 201.719 255.125 200.219 256.625C198.719 258.167 197.156 259.854 195.531 261.688C193.948 263.562 192.385 265.521 190.844 267.562C189.302 269.646 187.927 271.625 186.719 273.5C185.469 275.417 184.469 277.167 183.719 278.75C182.969 280.333 182.573 281.604 182.531 282.562C182.49 283.521 182.885 284.083 183.719 284.25C184.552 284.417 185.969 284.021 187.969 283.062C188.385 282.688 188.99 282.125 189.781 281.375C190.531 280.667 191.281 279.917 192.031 279.125C192.823 278.375 193.531 277.667 194.156 277C194.781 276.375 195.156 275.979 195.281 275.812C195.49 275.521 195.823 275.062 196.281 274.438C196.74 273.812 197.24 273.104 197.781 272.312C198.323 271.521 198.885 270.688 199.469 269.812C200.052 268.938 200.594 268.083 201.094 267.25C201.635 266.458 202.094 265.75 202.469 265.125C202.885 264.5 203.177 264.021 203.344 263.688C203.719 263.021 204.177 262.062 204.719 260.812C205.302 259.604 205.844 258.333 206.344 257C206.844 255.708 207.281 254.458 207.656 253.25C208.031 252.042 208.219 251.104 208.219 250.438ZM226.906 242.188C226.906 241.812 226.906 241.521 226.906 241.312C226.906 241.104 226.927 240.917 226.969 240.75C227.052 240.542 227.156 240.333 227.281 240.125C227.406 239.917 227.573 239.646 227.781 239.312C228.115 238.729 228.74 237.708 229.656 236.25C230.573 234.792 231.552 233.25 232.594 231.625C233.635 230 234.615 228.458 235.531 227C236.49 225.542 237.156 224.521 237.531 223.938C237.573 223.896 237.677 223.875 237.844 223.875C238.052 223.875 238.198 223.875 238.281 223.875C238.365 223.875 238.51 223.875 238.719 223.875C238.927 223.875 239.052 223.896 239.094 223.938C239.135 223.979 239.219 224.083 239.344 224.25C239.51 224.417 239.677 224.604 239.844 224.812C240.052 224.979 240.219 225.146 240.344 225.312C240.51 225.479 240.635 225.562 240.719 225.562C241.094 225.562 241.49 225.438 241.906 225.188C242.323 224.938 242.74 224.667 243.156 224.375C243.615 224.042 244.073 223.75 244.531 223.5C244.99 223.25 245.469 223.125 245.969 223.125C246.51 223.125 247.01 223.25 247.469 223.5C247.927 223.75 248.323 224.062 248.656 224.438C248.99 224.812 249.24 225.229 249.406 225.688C249.615 226.146 249.719 226.604 249.719 227.062C249.719 228.021 249.573 228.938 249.281 229.812C249.031 230.688 248.74 231.562 248.406 232.438C248.073 233.271 247.76 234.125 247.469 235C247.219 235.833 247.094 236.708 247.094 237.625C247.094 238.542 247.198 239.208 247.406 239.625C247.615 240 248.198 240.188 249.156 240.188C250.281 240.188 251.344 240.021 252.344 239.688C253.385 239.354 254.448 239.188 255.531 239.188C255.531 240.188 255.219 241.021 254.594 241.688C254.01 242.354 253.26 242.896 252.344 243.312C251.469 243.688 250.51 243.958 249.469 244.125C248.469 244.25 247.552 244.312 246.719 244.312C245.135 244.312 243.969 243.875 243.219 243C242.51 242.083 242.156 240.875 242.156 239.375C242.156 238.375 242.323 237.438 242.656 236.562C243.031 235.688 243.427 234.833 243.844 234C244.302 233.167 244.719 232.333 245.094 231.5C245.469 230.667 245.656 229.771 245.656 228.812C245.656 228.562 245.615 228.229 245.531 227.812C245.448 227.396 245.177 227.188 244.719 227.188C243.344 227.188 242.094 227.625 240.969 228.5C239.885 229.375 238.885 230.479 237.969 231.812C237.094 233.146 236.281 234.583 235.531 236.125C234.823 237.667 234.135 239.104 233.469 240.438C232.844 241.771 232.24 242.875 231.656 243.75C231.073 244.625 230.469 245.062 229.844 245.062C228.969 245.062 228.26 244.792 227.719 244.25C227.177 243.708 226.906 243.021 226.906 242.188ZM268.969 222.375C268.01 222.5 266.906 223.104 265.656 224.188C264.406 225.229 263.198 226.521 262.031 228.062C260.906 229.562 259.948 231.208 259.156 233C258.365 234.75 257.969 236.375 257.969 237.875C257.969 239.083 258.281 239.938 258.906 240.438C259.531 240.896 260.427 241.125 261.594 241.125C262.844 241.125 264.052 240.979 265.219 240.688C266.427 240.354 267.615 240.021 268.781 239.688C269.99 239.312 271.177 238.979 272.344 238.688C273.552 238.354 274.781 238.188 276.031 238.188C276.031 238.771 275.948 239.271 275.781 239.688C275.615 240.062 275.365 240.479 275.031 240.938C272.865 241.979 270.635 242.938 268.344 243.812C266.052 244.646 263.656 245.062 261.156 245.062C260.406 245.062 259.615 244.938 258.781 244.688C257.948 244.396 257.177 244 256.469 243.5C255.76 243 255.156 242.396 254.656 241.688C254.198 240.979 253.969 240.188 253.969 239.312C253.969 237.438 254.24 235.625 254.781 233.875C255.323 232.083 256.073 230.396 257.031 228.812C257.99 227.229 259.135 225.771 260.469 224.438C261.844 223.104 263.323 221.938 264.906 220.938V220.875C265.531 220.5 266.24 220.146 267.031 219.812C267.865 219.438 268.635 219.229 269.344 219.188C270.052 219.104 270.635 219.271 271.094 219.688C271.594 220.062 271.844 220.792 271.844 221.875C271.844 222.375 271.802 223.042 271.719 223.875C271.635 224.667 271.406 225.229 271.031 225.562C270.698 225.771 270.26 225.958 269.719 226.125C269.469 226.208 269.219 226.271 268.969 226.312V222.375Z" fill="white"/>
</g>
<defs>
<linearGradient id="paint0_linear_1_3" x1="153" y1="62.9386" x2="153" y2="238.804" gradientUnits="userSpaceOnUse">
<stop stop-color="#EA9769"/>
<stop offset="1" stop-color="#EA6969"/>
</linearGradient>
<clipPath id="clip0_1_3">
<rect width="306" height="311" fill="white"/>
</clipPath>
</defs>
</svg>
